<svg xmlns="http://www.w3.org/2000/svg" xmlns:xlink="http://www.w3.org/1999/xlink" width="150" zoomAndPan="magnify" viewBox="0 0 112.5 30.000001" height="40" preserveAspectRatio="xMidYMid meet" version="1.0"><defs><g/><clipPath id="5fa8e31a04"><path d="M 34 10 L 104.03125 10 L 104.03125 19 L 34 19 Z M 34 10 " clip-rule="nonzero"/></clipPath><clipPath id="1908a2805d"><path d="M 34.324219 10.722656 C 50.488281 15.6875 66.417969 17.261719 81.777344 10.617188 C 89.800781 10.738281 97.605469 11.710938 104.019531 18.054688 C 93.273438 13.027344 87.636719 13.402344 76.632812 15.523438 C 55.125 19.675781 44.191406 15.613281 34.324219 10.722656 Z M 34.324219 10.722656 " clip-rule="evenodd"/></clipPath><linearGradient x1="6788.545069" gradientTransform="matrix(0.00384079, 0, 0, 0.00386931, 8.539416, 0.00000193548)" y1="2270.328932" x2="24848.520759" gradientUnits="userSpaceOnUse" y2="5150.699043" id="4dfea043ed"><stop stop-opacity="1" stop-color="rgb(0%, 0%, 0%)" offset="0"/><stop stop-opacity="1" stop-color="rgb(0%, 0%, 0%)" offset="0.0201607"/><stop stop-opacity="1" stop-color="rgb(0%, 0%, 0%)" offset="0.125"/><stop stop-opacity="1" stop-color="rgb(0%, 0%, 0%)" offset="0.15625"/><stop stop-opacity="1" stop-color="rgb(0.0900269%, 0.0900269%, 0.0900269%)" offset="0.171875"/><stop stop-opacity="1" stop-color="rgb(0.469971%, 0.469971%, 0.469971%)" offset="0.175781"/><stop stop-opacity="1" stop-color="rgb(0.758362%, 0.758362%, 0.758362%)" offset="0.179687"/><stop stop-opacity="1" stop-color="rgb(1.045227%, 1.045227%, 1.045227%)" offset="0.183594"/><stop stop-opacity="1" stop-color="rgb(1.333618%, 1.333618%, 1.333618%)" offset="0.1875"/><stop stop-opacity="1" stop-color="rgb(1.622009%, 1.622009%, 1.622009%)" offset="0.191406"/><stop stop-opacity="1" stop-color="rgb(1.9104%, 1.9104%, 1.9104%)" offset="0.195312"/><stop stop-opacity="1" stop-color="rgb(2.198792%, 2.198792%, 2.198792%)" offset="0.199219"/><stop stop-opacity="1" stop-color="rgb(2.487183%, 2.487183%, 2.487183%)" offset="0.203125"/><stop stop-opacity="1" stop-color="rgb(2.775574%, 2.775574%, 2.775574%)" offset="0.207031"/><stop stop-opacity="1" stop-color="rgb(3.063965%, 3.063965%, 3.063965%)" offset="0.210937"/><stop stop-opacity="1" stop-color="rgb(3.352356%, 3.352356%, 3.352356%)" offset="0.214844"/><stop stop-opacity="1" stop-color="rgb(3.640747%, 3.640747%, 3.640747%)" offset="0.21875"/><stop stop-opacity="1" stop-color="rgb(3.927612%, 3.927612%, 3.927612%)" offset="0.222656"/><stop stop-opacity="1" stop-color="rgb(4.216003%, 4.216003%, 4.216003%)" offset="0.226562"/><stop stop-opacity="1" stop-color="rgb(4.504395%, 4.504395%, 4.504395%)" offset="0.230469"/><stop stop-opacity="1" stop-color="rgb(4.792786%, 4.792786%, 4.792786%)" offset="0.234375"/><stop stop-opacity="1" stop-color="rgb(5.081177%, 5.081177%, 5.081177%)" offset="0.238281"/><stop stop-opacity="1" stop-color="rgb(5.369568%, 5.369568%, 5.369568%)" offset="0.242187"/><stop stop-opacity="1" stop-color="rgb(5.657959%, 5.657959%, 5.657959%)" offset="0.246094"/><stop stop-opacity="1" stop-color="rgb(5.94635%, 5.94635%, 5.94635%)" offset="0.25"/><stop stop-opacity="1" stop-color="rgb(6.234741%, 6.234741%, 6.234741%)" offset="0.253906"/><stop stop-opacity="1" stop-color="rgb(6.523132%, 6.523132%, 6.523132%)" offset="0.257812"/><stop stop-opacity="1" stop-color="rgb(6.809998%, 6.809998%, 6.809998%)" offset="0.261719"/><stop stop-opacity="1" stop-color="rgb(7.098389%, 7.098389%, 7.098389%)" offset="0.265625"/><stop stop-opacity="1" stop-color="rgb(7.38678%, 7.38678%, 7.38678%)" offset="0.269531"/><stop stop-opacity="1" stop-color="rgb(7.675171%, 7.675171%, 7.675171%)" offset="0.273437"/><stop stop-opacity="1" stop-color="rgb(7.963562%, 7.963562%, 7.963562%)" offset="0.277344"/><stop stop-opacity="1" stop-color="rgb(8.251953%, 8.251953%, 8.251953%)" offset="0.28125"/><stop stop-opacity="1" stop-color="rgb(8.540344%, 8.540344%, 8.540344%)" offset="0.285156"/><stop stop-opacity="1" stop-color="rgb(8.828735%, 8.828735%, 8.828735%)" offset="0.289062"/><stop stop-opacity="1" stop-color="rgb(9.117126%, 9.117126%, 9.117126%)" offset="0.292969"/><stop stop-opacity="1" stop-color="rgb(9.405518%, 9.405518%, 9.405518%)" offset="0.296875"/><stop stop-opacity="1" stop-color="rgb(9.693909%, 9.693909%, 9.693909%)" offset="0.300781"/><stop stop-opacity="1" stop-color="rgb(9.9823%, 9.9823%, 9.9823%)" offset="0.304687"/><stop stop-opacity="1" stop-color="rgb(10.269165%, 10.269165%, 10.269165%)" offset="0.308594"/><stop stop-opacity="1" stop-color="rgb(10.557556%, 10.557556%, 10.557556%)" offset="0.3125"/><stop stop-opacity="1" stop-color="rgb(10.845947%, 10.845947%, 10.845947%)" offset="0.316406"/><stop stop-opacity="1" stop-color="rgb(11.134338%, 11.134338%, 11.134338%)" offset="0.320312"/><stop stop-opacity="1" stop-color="rgb(11.422729%, 11.422729%, 11.422729%)" offset="0.324219"/><stop stop-opacity="1" stop-color="rgb(11.711121%, 11.711121%, 11.711121%)" offset="0.328125"/><stop stop-opacity="1" stop-color="rgb(11.999512%, 11.999512%, 11.999512%)" offset="0.332031"/><stop stop-opacity="1" stop-color="rgb(12.287903%, 12.287903%, 12.287903%)" offset="0.335937"/><stop stop-opacity="1" stop-color="rgb(12.576294%, 12.576294%, 12.576294%)" offset="0.339844"/><stop stop-opacity="1" stop-color="rgb(12.864685%, 12.864685%, 12.864685%)" offset="0.34375"/><stop stop-opacity="1" stop-color="rgb(13.15155%, 13.15155%, 13.15155%)" offset="0.347656"/><stop stop-opacity="1" stop-color="rgb(13.439941%, 13.439941%, 13.439941%)" offset="0.351562"/><stop stop-opacity="1" stop-color="rgb(13.728333%, 13.728333%, 13.728333%)" offset="0.355469"/><stop stop-opacity="1" stop-color="rgb(14.016724%, 14.016724%, 14.016724%)" offset="0.359375"/><stop stop-opacity="1" stop-color="rgb(14.305115%, 14.305115%, 14.305115%)" offset="0.363281"/><stop stop-opacity="1" stop-color="rgb(14.593506%, 14.593506%, 14.593506%)" offset="0.367188"/><stop stop-opacity="1" stop-color="rgb(14.881897%, 14.881897%, 14.881897%)" offset="0.371094"/><stop stop-opacity="1" stop-color="rgb(15.170288%, 15.170288%, 15.170288%)" offset="0.375"/><stop stop-opacity="1" stop-color="rgb(15.458679%, 15.458679%, 15.458679%)" offset="0.378906"/><stop stop-opacity="1" stop-color="rgb(15.74707%, 15.74707%, 15.74707%)" offset="0.382812"/><stop stop-opacity="1" stop-color="rgb(16.033936%, 16.033936%, 16.033936%)" offset="0.386719"/><stop stop-opacity="1" stop-color="rgb(16.322327%, 16.322327%, 16.322327%)" offset="0.390625"/><stop stop-opacity="1" stop-color="rgb(16.610718%, 16.610718%, 16.610718%)" offset="0.394531"/><stop stop-opacity="1" stop-color="rgb(16.899109%, 16.899109%, 16.899109%)" offset="0.398438"/><stop stop-opacity="1" stop-color="rgb(17.1875%, 17.1875%, 17.1875%)" offset="0.402344"/><stop stop-opacity="1" stop-color="rgb(17.475891%, 17.475891%, 17.475891%)" offset="0.40625"/><stop stop-opacity="1" stop-color="rgb(17.764282%, 17.764282%, 17.764282%)" offset="0.410156"/><stop stop-opacity="1" stop-color="rgb(18.052673%, 18.052673%, 18.052673%)" offset="0.414062"/><stop stop-opacity="1" stop-color="rgb(18.341064%, 18.341064%, 18.341064%)" offset="0.417969"/><stop stop-opacity="1" stop-color="rgb(18.629456%, 18.629456%, 18.629456%)" offset="0.421875"/><stop stop-opacity="1" stop-color="rgb(18.917847%, 18.917847%, 18.917847%)" offset="0.425781"/><stop stop-opacity="1" stop-color="rgb(19.206238%, 19.206238%, 19.206238%)" offset="0.429687"/><stop stop-opacity="1" stop-color="rgb(19.493103%, 19.493103%, 19.493103%)" offset="0.433594"/><stop stop-opacity="1" stop-color="rgb(19.781494%, 19.781494%, 19.781494%)" offset="0.4375"/><stop stop-opacity="1" stop-color="rgb(20.069885%, 20.069885%, 20.069885%)" offset="0.441406"/><stop stop-opacity="1" stop-color="rgb(20.358276%, 20.358276%, 20.358276%)" offset="0.445312"/><stop stop-opacity="1" stop-color="rgb(20.646667%, 20.646667%, 20.646667%)" offset="0.449219"/><stop stop-opacity="1" stop-color="rgb(20.935059%, 20.935059%, 20.935059%)" offset="0.453125"/><stop stop-opacity="1" stop-color="rgb(21.22345%, 21.22345%, 21.22345%)" offset="0.457031"/><stop stop-opacity="1" stop-color="rgb(21.511841%, 21.511841%, 21.511841%)" offset="0.460937"/><stop stop-opacity="1" stop-color="rgb(21.800232%, 21.800232%, 21.800232%)" offset="0.464844"/><stop stop-opacity="1" stop-color="rgb(22.088623%, 22.088623%, 22.088623%)" offset="0.46875"/><stop stop-opacity="1" stop-color="rgb(22.375488%, 22.375488%, 22.375488%)" offset="0.472656"/><stop stop-opacity="1" stop-color="rgb(22.663879%, 22.663879%, 22.663879%)" offset="0.476562"/><stop stop-opacity="1" stop-color="rgb(22.952271%, 22.952271%, 22.952271%)" offset="0.480469"/><stop stop-opacity="1" stop-color="rgb(23.240662%, 23.240662%, 23.240662%)" offset="0.484375"/><stop stop-opacity="1" stop-color="rgb(23.529053%, 23.529053%, 23.529053%)" offset="0.488281"/><stop stop-opacity="1" stop-color="rgb(23.817444%, 23.817444%, 23.817444%)" offset="0.492187"/><stop stop-opacity="1" stop-color="rgb(24.105835%, 24.105835%, 24.105835%)" offset="0.496094"/><stop stop-opacity="1" stop-color="rgb(24.394226%, 24.394226%, 24.394226%)" offset="0.5"/><stop stop-opacity="1" stop-color="rgb(24.682617%, 24.682617%, 24.682617%)" offset="0.503906"/><stop stop-opacity="1" stop-color="rgb(24.971008%, 24.971008%, 24.971008%)" offset="0.507812"/><stop stop-opacity="1" stop-color="rgb(25.257874%, 25.257874%, 25.257874%)" offset="0.511719"/><stop stop-opacity="1" stop-color="rgb(25.546265%, 25.546265%, 25.546265%)" offset="0.515625"/><stop stop-opacity="1" stop-color="rgb(25.834656%, 25.834656%, 25.834656%)" offset="0.519531"/><stop stop-opacity="1" stop-color="rgb(26.123047%, 26.123047%, 26.123047%)" offset="0.523438"/><stop stop-opacity="1" stop-color="rgb(26.411438%, 26.411438%, 26.411438%)" offset="0.527344"/><stop stop-opacity="1" stop-color="rgb(26.699829%, 26.699829%, 26.699829%)" offset="0.53125"/><stop stop-opacity="1" stop-color="rgb(26.98822%, 26.98822%, 26.98822%)" offset="0.535156"/><stop stop-opacity="1" stop-color="rgb(27.276611%, 27.276611%, 27.276611%)" offset="0.539062"/><stop stop-opacity="1" stop-color="rgb(27.565002%, 27.565002%, 27.565002%)" offset="0.542969"/><stop stop-opacity="1" stop-color="rgb(27.853394%, 27.853394%, 27.853394%)" offset="0.546875"/><stop stop-opacity="1" stop-color="rgb(28.140259%, 28.140259%, 28.140259%)" offset="0.550781"/><stop stop-opacity="1" stop-color="rgb(28.42865%, 28.42865%, 28.42865%)" offset="0.554688"/><stop stop-opacity="1" stop-color="rgb(28.717041%, 28.717041%, 28.717041%)" offset="0.558594"/><stop stop-opacity="1" stop-color="rgb(29.005432%, 29.005432%, 29.005432%)" offset="0.5625"/><stop stop-opacity="1" stop-color="rgb(29.293823%, 29.293823%, 29.293823%)" offset="0.566406"/><stop stop-opacity="1" stop-color="rgb(29.582214%, 29.582214%, 29.582214%)" offset="0.570312"/><stop stop-opacity="1" stop-color="rgb(29.870605%, 29.870605%, 29.870605%)" offset="0.574219"/><stop stop-opacity="1" stop-color="rgb(30.158997%, 30.158997%, 30.158997%)" offset="0.578125"/><stop stop-opacity="1" stop-color="rgb(30.447388%, 30.447388%, 30.447388%)" offset="0.582031"/><stop stop-opacity="1" stop-color="rgb(30.735779%, 30.735779%, 30.735779%)" offset="0.585938"/><stop stop-opacity="1" stop-color="rgb(31.02417%, 31.02417%, 31.02417%)" offset="0.589844"/><stop stop-opacity="1" stop-color="rgb(31.312561%, 31.312561%, 31.312561%)" offset="0.59375"/><stop stop-opacity="1" stop-color="rgb(31.599426%, 31.599426%, 31.599426%)" offset="0.597656"/><stop stop-opacity="1" stop-color="rgb(31.887817%, 31.887817%, 31.887817%)" offset="0.601562"/><stop stop-opacity="1" stop-color="rgb(32.176208%, 32.176208%, 32.176208%)" offset="0.605469"/><stop stop-opacity="1" stop-color="rgb(32.4646%, 32.4646%, 32.4646%)" offset="0.609375"/><stop stop-opacity="1" stop-color="rgb(32.531738%, 32.531738%, 32.531738%)" offset="0.617188"/><stop stop-opacity="1" stop-color="rgb(31.993103%, 31.993103%, 31.993103%)" offset="0.621094"/><stop stop-opacity="1" stop-color="rgb(31.385803%, 31.385803%, 31.385803%)" offset="0.625"/><stop stop-opacity="1" stop-color="rgb(30.778503%, 30.778503%, 30.778503%)" offset="0.628906"/><stop stop-opacity="1" stop-color="rgb(30.172729%, 30.172729%, 30.172729%)" offset="0.632812"/><stop stop-opacity="1" stop-color="rgb(29.56543%, 29.56543%, 29.56543%)" offset="0.636719"/><stop stop-opacity="1" stop-color="rgb(28.95813%, 28.95813%, 28.95813%)" offset="0.640625"/><stop stop-opacity="1" stop-color="rgb(28.35083%, 28.35083%, 28.35083%)" offset="0.644531"/><stop stop-opacity="1" stop-color="rgb(27.745056%, 27.745056%, 27.745056%)" offset="0.648438"/><stop stop-opacity="1" stop-color="rgb(27.137756%, 27.137756%, 27.137756%)" offset="0.652344"/><stop stop-opacity="1" stop-color="rgb(26.530457%, 26.530457%, 26.530457%)" offset="0.65625"/><stop stop-opacity="1" stop-color="rgb(25.923157%, 25.923157%, 25.923157%)" offset="0.660156"/><stop stop-opacity="1" stop-color="rgb(25.317383%, 25.317383%, 25.317383%)" offset="0.664062"/><stop stop-opacity="1" stop-color="rgb(24.710083%, 24.710083%, 24.710083%)" offset="0.667969"/><stop stop-opacity="1" stop-color="rgb(24.102783%, 24.102783%, 24.102783%)" offset="0.671875"/><stop stop-opacity="1" stop-color="rgb(23.495483%, 23.495483%, 23.495483%)" offset="0.675781"/><stop stop-opacity="1" stop-color="rgb(22.889709%, 22.889709%, 22.889709%)" offset="0.679688"/><stop stop-opacity="1" stop-color="rgb(22.28241%, 22.28241%, 22.28241%)" offset="0.683594"/><stop stop-opacity="1" stop-color="rgb(21.67511%, 21.67511%, 21.67511%)" offset="0.6875"/><stop stop-opacity="1" stop-color="rgb(21.06781%, 21.06781%, 21.06781%)" offset="0.691406"/><stop stop-opacity="1" stop-color="rgb(20.462036%, 20.462036%, 20.462036%)" offset="0.695312"/><stop stop-opacity="1" stop-color="rgb(19.854736%, 19.854736%, 19.854736%)" offset="0.699219"/><stop stop-opacity="1" stop-color="rgb(19.247437%, 19.247437%, 19.247437%)" offset="0.703125"/><stop stop-opacity="1" stop-color="rgb(18.640137%, 18.640137%, 18.640137%)" offset="0.707031"/><stop stop-opacity="1" stop-color="rgb(18.034363%, 18.034363%, 18.034363%)" offset="0.710937"/><stop stop-opacity="1" stop-color="rgb(17.427063%, 17.427063%, 17.427063%)" offset="0.714844"/><stop stop-opacity="1" stop-color="rgb(16.819763%, 16.819763%, 16.819763%)" offset="0.71875"/><stop stop-opacity="1" stop-color="rgb(16.212463%, 16.212463%, 16.212463%)" offset="0.722656"/><stop stop-opacity="1" stop-color="rgb(15.606689%, 15.606689%, 15.606689%)" offset="0.726562"/><stop stop-opacity="1" stop-color="rgb(14.99939%, 14.99939%, 14.99939%)" offset="0.730469"/><stop stop-opacity="1" stop-color="rgb(14.39209%, 14.39209%, 14.39209%)" offset="0.734375"/><stop stop-opacity="1" stop-color="rgb(13.78479%, 13.78479%, 13.78479%)" offset="0.738281"/><stop stop-opacity="1" stop-color="rgb(13.17749%, 13.17749%, 13.17749%)" offset="0.742188"/><stop stop-opacity="1" stop-color="rgb(12.57019%, 12.57019%, 12.57019%)" offset="0.746094"/><stop stop-opacity="1" stop-color="rgb(11.964417%, 11.964417%, 11.964417%)" offset="0.75"/><stop stop-opacity="1" stop-color="rgb(11.357117%, 11.357117%, 11.357117%)" offset="0.753906"/><stop stop-opacity="1" stop-color="rgb(10.749817%, 10.749817%, 10.749817%)" offset="0.757812"/><stop stop-opacity="1" stop-color="rgb(10.142517%, 10.142517%, 10.142517%)" offset="0.761719"/><stop stop-opacity="1" stop-color="rgb(9.536743%, 9.536743%, 9.536743%)" offset="0.765625"/><stop stop-opacity="1" stop-color="rgb(8.929443%, 8.929443%, 8.929443%)" offset="0.769531"/><stop stop-opacity="1" stop-color="rgb(8.322144%, 8.322144%, 8.322144%)" offset="0.773438"/><stop stop-opacity="1" stop-color="rgb(7.714844%, 7.714844%, 7.714844%)" offset="0.777344"/><stop stop-opacity="1" stop-color="rgb(7.10907%, 7.10907%, 7.10907%)" offset="0.78125"/><stop stop-opacity="1" stop-color="rgb(6.50177%, 6.50177%, 6.50177%)" offset="0.785156"/><stop stop-opacity="1" stop-color="rgb(5.89447%, 5.89447%, 5.89447%)" offset="0.789062"/><stop stop-opacity="1" stop-color="rgb(5.28717%, 5.28717%, 5.28717%)" offset="0.792969"/><stop stop-opacity="1" stop-color="rgb(4.681396%, 4.681396%, 4.681396%)" offset="0.796875"/><stop stop-opacity="1" stop-color="rgb(4.074097%, 4.074097%, 4.074097%)" offset="0.800781"/><stop stop-opacity="1" stop-color="rgb(3.466797%, 3.466797%, 3.466797%)" offset="0.804687"/><stop stop-opacity="1" stop-color="rgb(2.859497%, 2.859497%, 2.859497%)" offset="0.808594"/><stop stop-opacity="1" stop-color="rgb(2.253723%, 2.253723%, 2.253723%)" offset="0.8125"/><stop stop-opacity="1" stop-color="rgb(1.646423%, 1.646423%, 1.646423%)" offset="0.816406"/><stop stop-opacity="1" stop-color="rgb(1.039124%, 1.039124%, 1.039124%)" offset="0.820312"/><stop stop-opacity="1" stop-color="rgb(0.518799%, 0.518799%, 0.518799%)" offset="0.824219"/><stop stop-opacity="1" stop-color="rgb(0%, 0%, 0%)" offset="0.828125"/><stop stop-opacity="1" stop-color="rgb(0%, 0%, 0%)" offset="0.84375"/><stop stop-opacity="1" stop-color="rgb(0%, 0%, 0%)" offset="0.875"/><stop stop-opacity="1" stop-color="rgb(0%, 0%, 0%)" offset="0.979839"/><stop stop-opacity="1" stop-color="rgb(0%, 0%, 0%)" offset="1"/></linearGradient><clipPath id="ba52ed06ea"><path d="M 8.527344 0 L 75 0 L 75 21.140625 L 8.527344 21.140625 Z M 8.527344 0 " clip-rule="nonzero"/></clipPath><clipPath id="e3eae8e821"><path d="M 74.898438 9 C 60.160156 3.460938 46.953125 2.417969 35.429688 6.320312 C 28.214844 9.460938 22.910156 13.167969 14.792969 12.390625 C 11.125 14.398438 10.476562 17.511719 11.226562 21.140625 C 8.109375 16.828125 7.765625 12.441406 9.871094 7.988281 C 19.046875 10.503906 21.671875 6.808594 29.09375 3.773438 C 43.605469 -2.167969 60.808594 -1.570312 74.898438 9 Z M 74.898438 9 " clip-rule="evenodd"/></clipPath></defs><g clip-path="url(#5fa8e31a04)"><g clip-path="url(#1908a2805d)"><path fill="url(#4dfea043ed)" d="M 34.324219 10.617188 L 34.324219 19.675781 L 104.019531 19.675781 L 104.019531 10.617188 Z M 34.324219 10.617188 " fill-rule="nonzero"/></g></g><g clip-path="url(#ba52ed06ea)"><g clip-path="url(#e3eae8e821)"><path fill="#000000" d="M 8.527344 0 L 8.527344 21.140625 L 74.898438 21.140625 L 74.898438 0 Z M 8.527344 0 " fill-opacity="1" fill-rule="nonzero"/></g></g><g fill="#000000" fill-opacity="1"><g transform="translate(11.068934, 27.717603)"><g><path d="M 2.0625 -3.191406 L 1.3125 -3.191406 L 0.015625 0 L 0.726562 0 L 0.957031 -0.59375 L 2.417969 -0.59375 L 2.648438 0 L 3.359375 0 Z M 1.171875 -1.167969 L 1.613281 -2.300781 C 1.640625 -2.367188 1.660156 -2.429688 1.6875 -2.539062 C 1.714844 -2.429688 1.734375 -2.367188 1.753906 -2.300781 L 2.203125 -1.167969 Z M 1.171875 -1.167969 "/></g></g></g><g fill="#000000" fill-opacity="1"><g transform="translate(18.089837, 27.717603)"><g><path d="M 1.710938 0.0625 C 2.417969 0.0625 3.109375 -0.253906 3.109375 -1.199219 L 3.109375 -3.191406 L 2.425781 -3.191406 L 2.425781 -1.234375 C 2.425781 -0.734375 2.132812 -0.554688 1.710938 -0.554688 C 1.285156 -0.554688 0.992188 -0.734375 0.992188 -1.234375 L 0.992188 -3.191406 L 0.308594 -3.191406 L 0.308594 -1.199219 C 0.308594 -0.253906 1.003906 0.0625 1.710938 0.0625 Z M 1.710938 0.0625 "/></g></g></g><g fill="#000000" fill-opacity="1"><g transform="translate(25.156328, 27.717603)"><g><path d="M 1.039062 0 L 1.722656 0 L 1.722656 -2.570312 L 2.699219 -2.570312 L 2.699219 -3.191406 L 0.0585938 -3.191406 L 0.0585938 -2.570312 L 1.039062 -2.570312 Z M 1.039062 0 "/></g></g></g><g fill="#000000" fill-opacity="1"><g transform="translate(31.561761, 27.717603)"><g><path d="M 1.859375 0.0625 C 2.992188 0.0625 3.554688 -0.730469 3.554688 -1.59375 C 3.554688 -2.460938 2.992188 -3.253906 1.859375 -3.253906 C 0.726562 -3.253906 0.164062 -2.460938 0.164062 -1.59375 C 0.164062 -0.730469 0.726562 0.0625 1.859375 0.0625 Z M 1.859375 -0.570312 C 1.199219 -0.570312 0.867188 -1.035156 0.867188 -1.59375 C 0.867188 -2.15625 1.199219 -2.621094 1.859375 -2.621094 C 2.515625 -2.621094 2.855469 -2.15625 2.855469 -1.59375 C 2.855469 -1.035156 2.515625 -0.570312 1.859375 -0.570312 Z M 1.859375 -0.570312 "/></g></g></g><g fill="#000000" fill-opacity="1"><g transform="translate(38.924593, 27.717603)"><g/></g></g><g fill="#000000" fill-opacity="1"><g transform="translate(43.583909, 27.717603)"><g><path d="M 0.34375 0 L 2.617188 0 L 2.617188 -0.601562 L 1.027344 -0.601562 L 1.027344 -1.308594 L 2.453125 -1.308594 L 2.453125 -1.910156 L 1.027344 -1.910156 L 1.027344 -2.589844 L 2.589844 -2.589844 L 2.589844 -3.191406 L 0.34375 -3.191406 Z M 0.34375 0 "/></g></g></g><g fill="#000000" fill-opacity="1"><g transform="translate(50.048604, 27.717603)"><g><path d="M 1.398438 0.0625 C 2.070312 0.0625 2.644531 -0.160156 2.644531 -0.875 C 2.644531 -2.011719 0.902344 -1.804688 0.902344 -2.355469 C 0.902344 -2.554688 1.070312 -2.648438 1.421875 -2.652344 C 1.777344 -2.65625 2.132812 -2.558594 2.402344 -2.367188 L 2.402344 -3.007812 C 2.132812 -3.164062 1.746094 -3.253906 1.367188 -3.253906 C 0.738281 -3.253906 0.199219 -2.964844 0.199219 -2.347656 C 0.199219 -1.21875 1.941406 -1.441406 1.941406 -0.84375 C 1.941406 -0.617188 1.71875 -0.539062 1.347656 -0.539062 C 0.984375 -0.539062 0.582031 -0.632812 0.21875 -0.875 L 0.21875 -0.222656 C 0.546875 -0.0429688 0.957031 0.0625 1.398438 0.0625 Z M 1.398438 0.0625 "/></g></g></g><g fill="#000000" fill-opacity="1"><g transform="translate(56.472268, 27.717603)"><g><path d="M 1.398438 0.0625 C 2.070312 0.0625 2.644531 -0.160156 2.644531 -0.875 C 2.644531 -2.011719 0.902344 -1.804688 0.902344 -2.355469 C 0.902344 -2.554688 1.070312 -2.648438 1.421875 -2.652344 C 1.777344 -2.65625 2.132812 -2.558594 2.402344 -2.367188 L 2.402344 -3.007812 C 2.132812 -3.164062 1.746094 -3.253906 1.367188 -3.253906 C 0.738281 -3.253906 0.199219 -2.964844 0.199219 -2.347656 C 0.199219 -1.21875 1.941406 -1.441406 1.941406 -0.84375 C 1.941406 -0.617188 1.71875 -0.539062 1.347656 -0.539062 C 0.984375 -0.539062 0.582031 -0.632812 0.21875 -0.875 L 0.21875 -0.222656 C 0.546875 -0.0429688 0.957031 0.0625 1.398438 0.0625 Z M 1.398438 0.0625 "/></g></g></g><g fill="#000000" fill-opacity="1"><g transform="translate(62.895934, 27.717603)"><g><path d="M 0.34375 0 L 2.617188 0 L 2.617188 -0.601562 L 1.027344 -0.601562 L 1.027344 -1.308594 L 2.453125 -1.308594 L 2.453125 -1.910156 L 1.027344 -1.910156 L 1.027344 -2.589844 L 2.589844 -2.589844 L 2.589844 -3.191406 L 0.34375 -3.191406 Z M 0.34375 0 "/></g></g></g><g fill="#000000" fill-opacity="1"><g transform="translate(69.360633, 27.717603)"><g><path d="M 0.34375 0 L 1.027344 0 L 1.027344 -1.640625 C 1.027344 -1.789062 1.027344 -1.945312 1.015625 -2.078125 L 2.492188 0 L 3.140625 0 L 3.140625 -3.191406 L 2.457031 -3.191406 L 2.457031 -1.554688 C 2.457031 -1.402344 2.457031 -1.238281 2.464844 -1.113281 L 0.988281 -3.191406 L 0.34375 -3.191406 Z M 0.34375 0 "/></g></g></g><g fill="#000000" fill-opacity="1"><g transform="translate(76.490952, 27.717603)"><g><path d="M 1.039062 0 L 1.722656 0 L 1.722656 -2.570312 L 2.699219 -2.570312 L 2.699219 -3.191406 L 0.0585938 -3.191406 L 0.0585938 -2.570312 L 1.039062 -2.570312 Z M 1.039062 0 "/></g></g></g><g fill="#000000" fill-opacity="1"><g transform="translate(82.896387, 27.717603)"><g><path d="M 0.34375 0 L 1.027344 0 L 1.027344 -3.191406 L 0.34375 -3.191406 Z M 0.34375 0 "/></g></g></g><g fill="#000000" fill-opacity="1"><g transform="translate(87.91131, 27.717603)"><g><path d="M 2.0625 -3.191406 L 1.3125 -3.191406 L 0.015625 0 L 0.726562 0 L 0.957031 -0.59375 L 2.417969 -0.59375 L 2.648438 0 L 3.359375 0 Z M 1.171875 -1.167969 L 1.613281 -2.300781 C 1.640625 -2.367188 1.660156 -2.429688 1.6875 -2.539062 C 1.714844 -2.429688 1.734375 -2.367188 1.753906 -2.300781 L 2.203125 -1.167969 Z M 1.171875 -1.167969 "/></g></g></g><g fill="#000000" fill-opacity="1"><g transform="translate(94.932215, 27.717603)"><g><path d="M 0.34375 0 L 2.59375 0 L 2.59375 -0.621094 L 1.027344 -0.621094 L 1.027344 -3.191406 L 0.34375 -3.191406 Z M 0.34375 0 "/></g></g></g><g fill="#000000" fill-opacity="1"><g transform="translate(101.232792, 27.717603)"><g><path d="M 1.398438 0.0625 C 2.070312 0.0625 2.644531 -0.160156 2.644531 -0.875 C 2.644531 -2.011719 0.902344 -1.804688 0.902344 -2.355469 C 0.902344 -2.554688 1.070312 -2.648438 1.421875 -2.652344 C 1.777344 -2.65625 2.132812 -2.558594 2.402344 -2.367188 L 2.402344 -3.007812 C 2.132812 -3.164062 1.746094 -3.253906 1.367188 -3.253906 C 0.738281 -3.253906 0.199219 -2.964844 0.199219 -2.347656 C 0.199219 -1.21875 1.941406 -1.441406 1.941406 -0.84375 C 1.941406 -0.617188 1.71875 -0.539062 1.347656 -0.539062 C 0.984375 -0.539062 0.582031 -0.632812 0.21875 -0.875 L 0.21875 -0.222656 C 0.546875 -0.0429688 0.957031 0.0625 1.398438 0.0625 Z M 1.398438 0.0625 "/></g></g></g></svg>